{
	"asset":{
		"generator":"Khronos glTF Blender I/O v4.0.44",
		"version":"2.0"
	},
	"extensionsUsed":[
		"KHR_materials_specular",
		"KHR_materials_ior"
	],
	"scene":0,
	"scenes":[
		{
			"name":"Scene",
			"nodes":[
				0,
				1,
				2,
				3
			]
		}
	],
	"nodes":[
		{
			"mesh":0,
			"name":"Grass_Block_Cube",
			"rotation":[
				0.5255883932113647,
				0,
				0.6689647436141968,
				0.5255882740020752
			],
			"scale":[
				0.4999999403953552,
				0.49999991059303284,
				0.4999999701976776
			],
			"translation":[
				1.4900000095367432,
				-0.5,
				-1.8899999856948853
			]
		},
		{
			"mesh":1,
			"name":"Grass_Block_Cube.001",
			"rotation":[
				0.0,
				0,
				0,
				0.7071066498756409
			],
			"scale":[
				0.5,
				0.4999999701976776,
				0.4999999701976776
			],
			"translation":[
				0,
				-0.5,
				0
			]
		},
		{
			"mesh":2,
			"name":"Grass_Block_Cube.002",
			"rotation":[
				0.4714046120643616,
				0.13333337008953094,
				-0.7333333492279053,
				0.47140440344810486
			],
			"scale":[
				1.1200001239776611,
				0.3600000739097595,
				0.7200000286102295
			],
			"translation":[
				2.0799999237060547,
				-0.5,
				0
			]
		},
		{
			"mesh":3,
			"name":"Icosphere",
			"translation":[
				0.8799999952316284,
				1.8299999237060547,
				-1.4299999475479126
			]
		}
	],
	"materials":[
		{
			"doubleSided":true,
			"extensions":{
				"KHR_materials_specular":{
					"specularColorFactor":[
						2.0,
						2.0,
						2.0
					]
				},
				"KHR_materials_ior":{
					"ior":1
				}
			},
			"name":"Grass_Block_TEX.002",
			"pbrMetallicRoughness":{
				"baseColorTexture":{
					"index":0
				},
				"metallicFactor":0.29019609093666077,
				"roughnessFactor":0.6837722063064575
			}
		},
		{
			"doubleSided":true,
			"extensions":{
				"KHR_materials_specular":{
					"specularColorFactor":[
						2.0,
						2.0,
						2.0
					]
				},
				"KHR_materials_ior":{
					"ior":1
				}
			},
			"name":"Grass_Block_TEX.001",
			"pbrMetallicRoughness":{
				"baseColorTexture":{
					"index":1
				},
				"metallicFactor":0.29019609093666077,
				"roughnessFactor":0.6837722063064575
			}
		},
		{
			"doubleSided":true,
			"extensions":{
				"KHR_materials_specular":{
					"specularColorFactor":[
						2.0,
						2.0,
						2.0
					]
				},
				"KHR_materials_ior":{
					"ior":1
				}
			},
			"name":"Grass_Block_TEX.003",
			"pbrMetallicRoughness":{
				"baseColorTexture":{
					"index":2
				},
				"metallicFactor":0.29019609093666077,
				"roughnessFactor":0.6837722063064575
			}
		},
		{
			"doubleSided":true,
			"name":"Material.001",
			"pbrMetallicRoughness":{
				"baseColorFactor":[
					0.8009780645370483,
					0,
					0.0010864996584132314,
					1
				],
				"roughnessFactor":0.5090909004211426
			}
		}
	],
	"meshes":[
		{
			"name":"Grass_Block_Cube",
			"primitives":[
				{
					"attributes":{
						"POSITION":0,
						"NORMAL":1,
						"TEXCOORD_0":2
					},
					"indices":3,
					"material":0
				}
			]
		},
		{
			"name":"Grass_Block_Cube.001",
			"primitives":[
				{
					"attributes":{
						"POSITION":4,
						"NORMAL":5,
						"TEXCOORD_0":6
					},
					"indices":3,
					"material":1
				}
			]
		},
		{
			"name":"Grass_Block_Cube.002",
			"primitives":[
				{
					"attributes":{
						"POSITION":7,
						"NORMAL":8,
						"TEXCOORD_0":9
					},
					"indices":3,
					"material":2
				}
			]
		},
		{
			"name":"Icosphere.001",
			"primitives":[
				{
					"attributes":{
						"POSITION":10,
						"NORMAL":11,
						"TEXCOORD_0":12
					},
					"indices":13,
					"material":3
				}
			]
		}
	],
	"textures":[
		{
			"sampler":0,
			"source":0
		},
		{
			"sampler":0,
			"source":0
		},
		{
			"sampler":0,
			"source":0
		}
	],
	"images":[
		{
			"mimeType":"image/png",
			"name":"Grass_Block_TEX",
			"uri":"textures/Grass_Block_TEX.png"
		}
	],
	"accessors":[
		{
			"bufferView":0,
			"componentType":5126,
			"count":24,
			"max":[
				1,
				1.0000009536743164,
				-3.000000106112566e-06
			],
			"min":[
				-1,
				-1,
				-2.0000030994415283
			],
			"type":"VEC3"
		},
		{
			"bufferView":1,
			"componentType":5126,
			"count":24,
			"type":"VEC3"
		},
		{
			"bufferView":2,
			"componentType":5126,
			"count":24,
			"type":"VEC2"
		},
		{
			"bufferView":3,
			"componentType":5123,
			"count":36,
			"type":"SCALAR"
		},
		{
			"bufferView":4,
			"componentType":5126,
			"count":24,
			"max":[
				1,
				1.0000009536743164,
				-3.000000106112566e-06
			],
			"min":[
				-1,
				-1,
				-2.0000030994415283
			],
			"type":"VEC3"
		},
		{
			"bufferView":5,
			"componentType":5126,
			"count":24,
			"type":"VEC3"
		},
		{
			"bufferView":6,
			"componentType":5126,
			"count":24,
			"type":"VEC2"
		},
		{
			"bufferView":7,
			"componentType":5126,
			"count":24,
			"max":[
				1,
				1.0000009536743164,
				-3.000000106112566e-06
			],
			"min":[
				-1,
				-1,
				-2.0000030994415283
			],
			"type":"VEC3"
		},
		{
			"bufferView":8,
			"componentType":5126,
			"count":24,
			"type":"VEC3"
		},
		{
			"bufferView":9,
			"componentType":5126,
			"count":24,
			"type":"VEC2"
		},
		{
			"bufferView":10,
			"componentType":5126,
			"count":729,
			"max":[
				1,
				1,
				0.9999999403953552
			],
			"min":[
				-0.9999999403953552,
				-1,
				-0.9999999403953552
			],
			"type":"VEC3"
		},
		{
			"bufferView":11,
			"componentType":5126,
			"count":729,
			"type":"VEC3"
		},
		{
			"bufferView":12,
			"componentType":5126,
			"count":729,
			"type":"VEC2"
		},
		{
			"bufferView":13,
			"componentType":5123,
			"count":3840,
			"type":"SCALAR"
		}
	],
	"bufferViews":[
		{
			"buffer":0,
			"byteLength":288,
			"byteOffset":0,
			"target":34962
		},
		{
			"buffer":0,
			"byteLength":288,
			"byteOffset":288,
			"target":34962
		},
		{
			"buffer":0,
			"byteLength":192,
			"byteOffset":576,
			"target":34962
		},
		{
			"buffer":0,
			"byteLength":72,
			"byteOffset":768,
			"target":34963
		},
		{
			"buffer":0,
			"byteLength":288,
			"byteOffset":840,
			"target":34962
		},
		{
			"buffer":0,
			"byteLength":288,
			"byteOffset":1128,
			"target":34962
		},
		{
			"buffer":0,
			"byteLength":192,
			"byteOffset":1416,
			"target":34962
		},
		{
			"buffer":0,
			"byteLength":288,
			"byteOffset":1608,
			"target":34962
		},
		{
			"buffer":0,
			"byteLength":288,
			"byteOffset":1896,
			"target":34962
		},
		{
			"buffer":0,
			"byteLength":192,
			"byteOffset":2184,
			"target":34962
		},
		{
			"buffer":0,
			"byteLength":8748,
			"byteOffset":2376,
			"target":34962
		},
		{
			"buffer":0,
			"byteLength":8748,
			"byteOffset":11124,
			"target":34962
		},
		{
			"buffer":0,
			"byteLength":5832,
			"byteOffset":19872,
			"target":34962
		},
		{
			"buffer":0,
			"byteLength":7680,
			"byteOffset":25704,
			"target":34963
		}
	],
	"samplers":[
		{
			"magFilter":9729,
			"minFilter":9987
		}
	],
	"buffers":[
		{
			"byteLength":33384,
			"uri":"untitled.bin"
		}
	]
}
